<svg xmlns="http://www.w3.org/2000/svg" width="24" height="24" viewBox="0 0 24 24" fill="none">
  <path d="M11.4231 2.15393H3.31624C2.70193 2.15393 2.11279 2.39796 1.67841 2.83234C1.24403 3.26672 1 3.85586 1 4.47017V20.6838C1 21.2981 1.24403 21.8873 1.67841 22.3217C2.11279 22.756 2.70193 23.0001 3.31624 23.0001H19.5299C20.1442 23.0001 20.7334 22.756 21.1677 22.3217C21.6021 21.8873 21.8461 21.2981 21.8461 20.6838V12.577" stroke="white" stroke-width="2" stroke-linecap="round" stroke-linejoin="round"/>
  <path d="M18.806 1.71956C19.2667 1.25883 19.8916 1 20.5432 1C21.1948 1 21.8196 1.25883 22.2804 1.71956C22.7411 2.18029 22.9999 2.80517 22.9999 3.45674C22.9999 4.10831 22.7411 4.73319 22.2804 5.19392L11.8422 15.6332C11.5672 15.908 11.2275 16.1091 10.8544 16.2181L7.52708 17.1909C7.42743 17.2199 7.32179 17.2217 7.22124 17.1959C7.12068 17.1702 7.02889 17.1178 6.95549 17.0444C6.88209 16.971 6.82977 16.8792 6.80401 16.7787C6.77824 16.6781 6.77998 16.5725 6.80905 16.4728L7.78187 13.1456C7.89134 12.7727 8.09287 12.4334 8.36788 12.1588L18.806 1.71956Z" stroke="white" stroke-width="2" stroke-linecap="round" stroke-linejoin="round"/>
</svg>