<svg xmlns="http://www.w3.org/2000/svg" width="24" height="25" viewBox="0 0 24 25" fill="none">
  <path d="M1 12.5C1 7.3146 1 4.7219 2.6104 3.1104C4.223 1.5 6.8146 1.5 12 1.5C17.1854 1.5 19.7781 1.5 21.3885 3.1104C23 4.723 23 7.3146 23 12.5C23 17.6854 23 20.2781 21.3885 21.8885C19.7792 23.5 17.1854 23.5 12 23.5C6.8146 23.5 4.2219 23.5 2.6104 21.8885C1 20.2792 1 17.6854 1 12.5Z" stroke="#FBFFFF" stroke-width="1.5"/>
  <path d="M1 13.6H4.476C5.4715 13.6 5.9698 13.6 6.4076 13.8013C6.8454 14.0026 7.1688 14.381 7.8167 15.1367L8.4833 15.9133C9.1312 16.669 9.4546 17.0474 9.8924 17.2487C10.3302 17.45 10.8274 17.45 11.824 17.45H12.176C13.1715 17.45 13.6698 17.45 14.1076 17.2487C14.5454 17.0474 14.8688 16.669 15.5167 15.9133L16.1833 15.1367C16.8312 14.381 17.1546 14.0026 17.5924 13.8013C18.0302 13.6 18.5274 13.6 19.524 13.6H23" stroke="#FBFFFF" stroke-width="1.5" stroke-linecap="round"/>
</svg>