<svg width="34" height="36" viewBox="0 0 34 36" fill="none" xmlns="http://www.w3.org/2000/svg">
<path d="M26.4888 16.3027C27.4674 25.4418 31.3158 28.2048 31.3158 28.2048H1C1 28.2048 6.05263 24.5781 6.05263 11.8819C6.05263 8.99652 7.11705 6.22843 9.01179 4.18806C10.9065 2.1477 13.48 1 16.1579 1C16.7272 1 17.2886 1.05101 17.8421 1.15303M19.0716 33.3057C18.7755 33.821 18.3505 34.2488 17.8391 34.5461C17.3278 34.8435 16.748 35 16.1579 35C15.5678 35 14.988 34.8435 14.4767 34.5461C13.9653 34.2488 13.5403 33.821 13.2442 33.3057M27.9474 11.2018C29.2874 11.2018 30.5726 10.6644 31.5201 9.70779C32.4677 8.75118 33 7.45375 33 6.1009C33 4.74806 32.4677 3.45063 31.5201 2.49402C30.5726 1.53742 29.2874 1 27.9474 1C26.6073 1 25.3222 1.53742 24.3746 2.49402C23.4271 3.45063 22.8947 4.74806 22.8947 6.1009C22.8947 7.45375 23.4271 8.75118 24.3746 9.70779C25.3222 10.6644 26.6073 11.2018 27.9474 11.2018Z" stroke="white" stroke-width="2" stroke-linecap="round" stroke-linejoin="round"/>
</svg>
