<svg xmlns="http://www.w3.org/2000/svg" width="24" height="25" viewBox="0 0 24 25" fill="none">
  <path d="M5.6686 5.42509C6.01671 5.54747 6.38721 5.59318 6.75466 5.55908C7.12212 5.52498 7.47784 5.41187 7.79741 5.22752C8.11698 5.04317 8.39283 4.79195 8.60604 4.49108C8.81924 4.19022 8.96474 3.84685 9.03256 3.48453L9.44186 1.2872C11.1249 0.904268 12.8726 0.904268 14.5556 1.2872L14.9674 3.48453C15.0353 3.84685 15.1808 4.19022 15.394 4.49108C15.6072 4.79195 15.883 5.04317 16.2026 5.22752C16.5222 5.41187 16.8779 5.52498 17.2453 5.55908C17.6128 5.59318 17.9833 5.54747 18.3314 5.42509L20.4406 4.68413C21.6146 5.9473 22.4894 7.45796 23 9.10435L21.2988 10.5607C21.0187 10.8006 20.7938 11.0982 20.6396 11.433C20.4854 11.7679 20.4055 12.1321 20.4055 12.5006C20.4055 12.8692 20.4854 13.2334 20.6396 13.5683C20.7938 13.9031 21.0187 14.2007 21.2988 14.4406L23 15.8957C22.4894 17.542 21.6146 19.0527 20.4406 20.3159L18.3301 19.5749C17.982 19.4525 17.6115 19.4068 17.2441 19.4409C16.8766 19.475 16.5209 19.5881 16.2013 19.7725C15.8817 19.9568 15.6059 20.2081 15.3927 20.5089C15.1795 20.8098 15.034 21.1531 14.9662 21.5155L14.5581 23.7128C12.8751 24.0957 11.1274 24.0957 9.44442 23.7128L9.03256 21.5155C8.96474 21.1531 8.81924 20.8098 8.60604 20.5089C8.39283 20.2081 8.11698 19.9568 7.79741 19.7725C7.47784 19.5881 7.12212 19.475 6.75466 19.4409C6.38721 19.4068 6.01671 19.4525 5.6686 19.5749L3.55942 20.3159C2.38535 19.0527 1.51064 17.542 1 15.8957L2.70116 14.4393C2.98112 14.1994 3.20583 13.9019 3.3599 13.5672C3.51396 13.2325 3.59372 12.8684 3.59372 12.5C3.59372 12.1316 3.51396 11.7675 3.3599 11.4328C3.20583 11.0981 2.98112 10.8006 2.70116 10.5607L1 9.10435C1.51027 7.45808 2.38453 5.94743 3.55814 4.68413L5.6686 5.42509ZM12 8.66744C13.0177 8.66744 13.9937 9.07122 14.7133 9.78997C15.4329 10.5087 15.8372 11.4835 15.8372 12.5C15.8372 13.5165 15.4329 14.4913 14.7133 15.21C13.9937 15.9288 13.0177 16.3326 12 16.3326C10.9823 16.3326 10.0063 15.9288 9.28668 15.21C8.56707 14.4913 8.16279 13.5165 8.16279 12.5C8.16279 11.4835 8.56707 10.5087 9.28668 9.78997C10.0063 9.07122 10.9823 8.66744 12 8.66744Z" stroke="white" stroke-width="1.5" stroke-linecap="round" stroke-linejoin="round"/>
</svg>