<svg xmlns="http://www.w3.org/2000/svg" width="22" height="30" viewBox="0 0 22 30" fill="none">
  <path d="M11 23.5708C10.2315 23.571 9.48708 23.3099 8.89508 22.8326C8.30308 22.3553 7.90065 21.6917 7.7572 20.9563C5.59928 20.3067 3.69897 19.0257 2.3144 17.2874C1.26915 15.9762 0.550932 14.4464 0.216408 12.8186C-0.118116 11.1908 -0.059799 9.5096 0.386758 7.90752C0.833315 6.30544 1.6559 4.82634 2.78962 3.58689C3.92335 2.34744 5.33721 1.38155 6.91967 0.765395C8.50214 0.149242 10.2099 -0.100317 11.9083 0.0364032C13.6067 0.173124 15.2493 0.692384 16.7065 1.55323C18.1636 2.41407 19.3956 3.59294 20.305 4.99687C21.2145 6.40079 21.7767 7.99136 21.9472 9.64312C22.0066 10.2325 21.5072 10.7125 20.9 10.7125C20.2928 10.7125 19.8066 10.2303 19.734 9.64312C19.5377 8.12761 18.9292 6.69075 17.9715 5.48119C17.0138 4.27163 15.7417 3.33332 14.2868 2.76335C12.832 2.19338 11.2472 2.01245 9.69648 2.23928C8.14575 2.46611 6.68542 3.09247 5.46657 4.05354C4.24773 5.01461 3.31465 6.27548 2.76389 7.70568C2.21313 9.13589 2.0647 10.6835 2.33394 12.1883C2.60319 13.6932 3.28034 15.1006 4.29532 16.265C5.3103 17.4293 6.62625 18.3084 8.107 18.8111C8.38694 18.3136 8.79706 17.8971 9.2957 17.604C9.79435 17.3109 10.3637 17.1515 10.9461 17.1421C11.5284 17.1327 12.1029 17.2736 12.6113 17.5505C13.1196 17.8273 13.5437 18.2303 13.8404 18.7185C14.1371 19.2067 14.2959 19.7627 14.3007 20.33C14.3054 20.8973 14.156 21.4557 13.8675 21.9486C13.579 22.4414 13.1617 22.8511 12.6581 23.136C12.1545 23.421 11.5824 23.571 11 23.5708ZM2.2 20.3562V20.2984C1.59845 19.7736 1.04761 19.1961 0.5544 18.5732C0.192974 19.1012 7.09937e-05 19.7216 0 20.3562V21.4278C0 25.6517 4.092 30 11 30C17.908 30 22 25.6517 22 21.4278V20.3562C22 19.5037 21.6523 18.686 21.0335 18.0832C20.4146 17.4803 19.5752 17.1417 18.7 17.1417H15.4C15.8818 17.7632 16.225 18.4918 16.39 19.2847H18.7C18.9917 19.2847 19.2715 19.3976 19.4778 19.5986C19.6841 19.7995 19.8 20.0721 19.8 20.3562V21.4278C19.8 24.5095 16.6496 27.8569 11 27.8569C5.3504 27.8569 2.2 24.5095 2.2 21.4278V20.3562ZM11 14.9986C9.74119 14.9986 8.52045 15.4191 7.5416 16.1901C6.57975 15.6161 5.78559 14.8108 5.23543 13.8515C4.68526 12.8923 4.39757 11.8113 4.4 10.7125C4.40032 9.59164 4.70146 8.49033 5.27355 7.51782C5.84564 6.54531 6.66879 5.73539 7.66136 5.16839C8.65393 4.6014 9.78142 4.29703 10.932 4.28549C12.0826 4.27394 13.2163 4.55561 14.2206 5.10257C15.225 5.64952 16.0651 6.44275 16.6576 7.40357C17.2502 8.36439 17.5745 9.45942 17.5986 10.58C17.6226 11.7007 17.3454 12.8079 16.7946 13.792C16.2438 14.7761 15.4384 15.6028 14.4584 16.1901C13.4795 15.4191 12.2588 14.9986 11 14.9986ZM6.6 10.7125C6.6 11.8492 7.06357 12.9394 7.88873 13.7432C8.71389 14.547 9.83305 14.9986 11 14.9986C12.167 14.9986 13.2861 14.547 14.1113 13.7432C14.9364 12.9394 15.4 11.8492 15.4 10.7125C15.4 9.57575 14.9364 8.48556 14.1113 7.68176C13.2861 6.87796 12.167 6.42639 11 6.42639C9.83305 6.42639 8.71389 6.87796 7.88873 7.68176C7.06357 8.48556 6.6 9.57575 6.6 10.7125Z" fill="white"/>
</svg>